<?xml version="1.0" standalone="no"?>
<!DOCTYPE svg PUBLIC "-//W3C//DTD SVG 20010904//EN"
 "http://www.w3.org/TR/2001/REC-SVG-20010904/DTD/svg10.dtd">
<svg version="1.0" xmlns="http://www.w3.org/2000/svg"
 width="512.000000pt" height="512.000000pt" viewBox="0 0 512.000000 512.000000"
 preserveAspectRatio="xMidYMid meet">

<g transform="translate(0.000000,512.000000) scale(0.100000,-0.100000)"
fill="#000000" stroke="none">
<path d="M0 2560 l0 -2050 2560 0 2560 0 0 2050 0 2050 -2560 0 -2560 0 0
-2050z m4820 1550 l0 -200 -2260 0 -2260 0 0 200 0 200 2260 0 2260 0 0 -200z
m0 -1900 l0 -1400 -2260 0 -2260 0 0 1400 0 1400 2260 0 2260 0 0 -1400z"/>
<path d="M2415 2366 c-109 -380 -198 -697 -199 -705 -1 -11 41 -27 144 -57 80
-23 146 -40 148 -39 9 8 400 1401 394 1406 -4 4 -56 21 -117 38 -60 17 -124
35 -141 40 l-32 9 -197 -692z"/>
<path d="M1390 2665 l-355 -355 358 -357 357 -358 112 113 113 112 -245 245
-245 245 245 245 245 245 -110 110 c-60 60 -112 110 -115 110 -3 0 -165 -160
-360 -355z"/>
<path d="M3255 2910 l-110 -110 245 -245 245 -245 -245 -245 -245 -245 113
-112 112 -113 357 358 358 357 -355 355 c-195 195 -357 355 -360 355 -3 0 -55
-50 -115 -110z"/>
</g>
</svg>
